<svg height="978pt" viewBox="-81 0 978 978.641" width="978pt" xmlns="http://www.w3.org/2000/svg"><path d="m799.867188 962.683594v-783.199219h-163.167969v-163.167969h-587.398438v946.367188zm-97.898438-228.433594h-195.800781v-65.265625c0-54.070313 43.828125-97.898437 97.898437-97.898437-27.035156 0-48.949218-21.917969-48.949218-48.953126 0-27.03125 21.914062-48.949218 48.949218-48.949218s48.949219 21.917968 48.949219 48.949218c0 27.035157-21.914063 48.953126-48.949219 48.953126 54.070313 0 97.898438 43.828124 97.898438 97.898437v65.265625zm-522.136719-407.917969h522.136719-522.136719v326.332031zm0 0" fill="#ffeb99"/><path d="m799.867188 179.484375-163.167969-163.167969v163.167969zm0 0" fill="#ffe477"/><path d="m604.066406 571.082031c-54.070312 0-97.898437 43.832031-97.898437 97.902344v65.265625h195.800781v-65.265625c0-54.070313-43.832031-97.902344-97.902344-97.902344zm0 0" fill="#a7a9ac"/><path d="m653.015625 522.132812c0 27.035157-21.914063 48.949219-48.949219 48.949219s-48.949218-21.914062-48.949218-48.949219c0-27.035156 21.914062-48.949218 48.949218-48.949218s48.949219 21.914062 48.949219 48.949218zm0 0" fill="#a97c50"/><g fill="#231f20"><path d="m816.035156 179.484375c.039063-4.308594-1.625-8.453125-4.632812-11.539063l-163.167969-163.164062c-3.074219-3.019531-7.226563-4.6835938-11.535156-4.632812v-.148438h-587.398438c-9.011719 0-16.316406 7.304688-16.316406 16.316406v65.265625h-32.632813v32.632813h32.632813v65.269531h-32.632813v32.632813h32.632813v65.265624h-32.632813v32.632813h32.632813v65.265625h-32.632813v32.632812h32.632813v65.269532h-32.632813v32.632812h32.632813v65.265625h-32.632813v32.632813h32.632813v65.265625h-32.632813v32.632812h32.632813v65.269531h-32.632813v32.632813h32.632813v65.265625h-32.632813v32.632812h32.632813v65.265626c0 9.011718 7.304687 16.316406 16.316406 16.316406h750.566407c9.011718 0 16.316406-7.304688 16.316406-16.316406v-783.195313zm-163.019531-123.777344 107.460937 107.460938h-107.460937zm-587.398437 890.660157v-48.949219h32.632812v-32.632813h-32.632812v-65.269531h32.632812v-32.632813h-32.632812v-65.265624h32.632812v-32.632813h-32.632812v-65.265625h32.632812v-32.632812h-32.632812v-65.269532h32.632812v-32.632812h-32.632812v-65.265625h32.632812v-32.632813h-32.632812v-65.265625h32.632812v-32.632812h-32.632812v-65.269531h32.632812v-32.632813h-32.632812v-65.265625h32.632812v-32.636719h-32.632812v-48.949219h554.765624v146.851563c0 9.007813 7.304688 16.316406 16.316407 16.316406h146.851562v750.566407zm0 0"/><path d="m701.96875 310.015625h-522.136719c-9.007812 0-16.316406 7.308594-16.316406 16.320313v326.332031c0 9.011719 7.308594 16.316406 16.316406 16.316406h310.019531v65.265625c0 9.011719 7.304688 16.316406 16.316407 16.316406h195.800781c9.011719 0 16.316406-7.304687 16.316406-16.316406v-65.265625c-.046875-5.464844-.480468-10.917969-1.304687-16.316406h1.304687v-326.335938c-.003906-9.011719-7.308594-16.316406-16.316406-16.316406zm-16.320312 407.917969h-163.164063v-48.949219c0-45.058594 36.527344-81.585937 81.582031-81.585937 45.058594 0 81.585938 36.527343 81.585938 81.585937v48.949219zm-114.214844-195.800782c0-18.023437 14.609375-32.632812 32.632812-32.632812 18.023438 0 32.632813 14.609375 32.632813 32.632812 0 18.023438-14.609375 32.632813-32.632813 32.632813-18.023437 0-32.632812-14.609375-32.632812-32.632813zm80.929687 43.5c24.246094-26.671874 22.277344-67.953124-4.398437-92.195312-26.671875-24.246094-67.953125-22.277344-92.195313 4.398438-22.628906 24.890624-22.628906 62.902343 0 87.796874-29.457031 13.84375-51.640625 39.550782-61.023437 70.71875h-298.597656v-293.703124h489.5v246.5625c-9.589844-9.789063-20.867188-17.777344-33.285157-23.578126zm0 0"/><path d="m228.785156 375.285156h163.164063v32.632813h-163.164063zm0 0"/><path d="m228.785156 440.550781h293.699219v32.632813h-293.699219zm0 0"/><path d="m228.785156 505.816406h163.164063v32.632813h-163.164063zm0 0"/><path d="m228.785156 571.082031h228.433594v32.632813h-228.433594zm0 0"/></g></svg>